<svg width="460" height="300" viewBox="0 0 460 300" fill="none" xmlns="http://www.w3.org/2000/svg">
  <defs>
    <linearGradient id="cardBorderGlow" x1="0" y1="0" x2="460" y2="300">
      <stop offset="0%" stop-color="#00BFFF" stop-opacity="0.35" />
      <stop offset="100%" stop-color="#30363D" stop-opacity="0" />
    </linearGradient>
  </defs>

  <!-- card background -->
  <rect x="0.5" y="0.5" width="459" height="299" rx="12" ry="12"
        fill="#161B22" stroke="#30363D" stroke-width="1" />
  <rect x="0.5" y="0.5" width="459" height="299" rx="12" ry="12"
        fill="none" stroke="url(#cardBorderGlow)" stroke-width="1" />

  <text x="24" y="34" font-family="'Segoe UI', ui-sans-serif, system-ui, -apple-system, 'Helvetica Neue', Arial, sans-serif" font-size="15" font-weight="600"
        fill="#FFFFFF" text-anchor="start">Commit Trend</text>
  <text x="24" y="52" font-family="'Segoe UI', ui-sans-serif, system-ui, -apple-system, 'Helvetica Neue', Arial, sans-serif" font-size="11.5" font-weight="400"
        fill="#8B949E" text-anchor="start">Cumulative commits · last 12 weeks</text>

  <defs><linearGradient id="areaFill" x1="0" y1="70" x2="0" y2="264">
      <stop offset="0%" stop-color="#00BFFF" stop-opacity="0.35" />
      <stop offset="100%" stop-color="#00BFFF" stop-opacity="0.02" />
    </linearGradient><linearGradient id="areaStroke" x1="44" y1="0" x2="436" y2="0">
      <stop offset="0%" stop-color="#38BDF8" stop-opacity="1" />
      <stop offset="100%" stop-color="#00BFFF" stop-opacity="1" />
    </linearGradient></defs>
<line x1="44" y1="70.00" x2="436" y2="70.00" stroke="#21262D" stroke-width="1" />
<line x1="44" y1="118.50" x2="436" y2="118.50" stroke="#21262D" stroke-width="1" />
<line x1="44" y1="167.00" x2="436" y2="167.00" stroke="#21262D" stroke-width="1" />
<line x1="44" y1="215.50" x2="436" y2="215.50" stroke="#21262D" stroke-width="1" />
<line x1="44" y1="264.00" x2="436" y2="264.00" stroke="#21262D" stroke-width="1" />
<text x="34" y="74.0" font-family="'Segoe UI', ui-sans-serif, system-ui, -apple-system, 'Helvetica Neue', Arial, sans-serif" font-size="10" font-weight="500" fill="#8B949E" text-anchor="end"  opacity="1">59</text>
<text x="34" y="122.5" font-family="'Segoe UI', ui-sans-serif, system-ui, -apple-system, 'Helvetica Neue', Arial, sans-serif" font-size="10" font-weight="500" fill="#8B949E" text-anchor="end"  opacity="1">45</text>
<text x="34" y="171.0" font-family="'Segoe UI', ui-sans-serif, system-ui, -apple-system, 'Helvetica Neue', Arial, sans-serif" font-size="10" font-weight="500" fill="#8B949E" text-anchor="end"  opacity="1">30</text>
<text x="34" y="219.5" font-family="'Segoe UI', ui-sans-serif, system-ui, -apple-system, 'Helvetica Neue', Arial, sans-serif" font-size="10" font-weight="500" fill="#8B949E" text-anchor="end"  opacity="1">15</text>
<text x="34" y="268.0" font-family="'Segoe UI', ui-sans-serif, system-ui, -apple-system, 'Helvetica Neue', Arial, sans-serif" font-size="10" font-weight="500" fill="#8B949E" text-anchor="end"  opacity="1">0</text>
<path d="M 44.00 264.00 C 49.94 264.00 67.76 264.00 79.64 264.00 C 91.52 264.00 103.39 264.00 115.27 264.00 C 127.15 264.00 139.03 264.00 150.91 264.00 C 162.79 264.00 174.67 269.99 186.55 264.00 C 198.42 258.01 210.30 236.78 222.18 228.07 C 234.06 219.36 245.94 219.36 257.82 211.74 C 269.70 204.12 281.58 192.69 293.45 182.35 C 305.33 172.01 317.21 156.77 329.09 149.69 C 340.97 142.61 352.85 145.34 364.73 139.89 C 376.61 134.45 388.48 125.74 400.36 117.03 C 412.24 108.32 430.06 92.54 436.00 87.64 L 436.00 264.00 L 44.00 264.00 Z" fill="url(#areaFill)" stroke="none" />
<path d="M 44.00 264.00 C 49.94 264.00 67.76 264.00 79.64 264.00 C 91.52 264.00 103.39 264.00 115.27 264.00 C 127.15 264.00 139.03 264.00 150.91 264.00 C 162.79 264.00 174.67 269.99 186.55 264.00 C 198.42 258.01 210.30 236.78 222.18 228.07 C 234.06 219.36 245.94 219.36 257.82 211.74 C 269.70 204.12 281.58 192.69 293.45 182.35 C 305.33 172.01 317.21 156.77 329.09 149.69 C 340.97 142.61 352.85 145.34 364.73 139.89 C 376.61 134.45 388.48 125.74 400.36 117.03 C 412.24 108.32 430.06 92.54 436.00 87.64" fill="none" stroke="url(#areaStroke)" stroke-width="2.5" stroke-linecap="round" />
<text x="44.0" y="286" font-family="'Segoe UI', ui-sans-serif, system-ui, -apple-system, 'Helvetica Neue', Arial, sans-serif" font-size="9.5" font-weight="500" fill="#8B949E" text-anchor="middle"  opacity="1">Apr 19</text>
<text x="115.27272727272727" y="286" font-family="'Segoe UI', ui-sans-serif, system-ui, -apple-system, 'Helvetica Neue', Arial, sans-serif" font-size="9.5" font-weight="500" fill="#8B949E" text-anchor="middle"  opacity="1">May 3</text>
<text x="186.54545454545453" y="286" font-family="'Segoe UI', ui-sans-serif, system-ui, -apple-system, 'Helvetica Neue', Arial, sans-serif" font-size="9.5" font-weight="500" fill="#8B949E" text-anchor="middle"  opacity="1">May 17</text>
<text x="257.8181818181818" y="286" font-family="'Segoe UI', ui-sans-serif, system-ui, -apple-system, 'Helvetica Neue', Arial, sans-serif" font-size="9.5" font-weight="500" fill="#8B949E" text-anchor="middle"  opacity="1">May 31</text>
<text x="329.09090909090907" y="286" font-family="'Segoe UI', ui-sans-serif, system-ui, -apple-system, 'Helvetica Neue', Arial, sans-serif" font-size="9.5" font-weight="500" fill="#8B949E" text-anchor="middle"  opacity="1">Jun 14</text>
<text x="400.3636363636364" y="286" font-family="'Segoe UI', ui-sans-serif, system-ui, -apple-system, 'Helvetica Neue', Arial, sans-serif" font-size="9.5" font-weight="500" fill="#8B949E" text-anchor="middle"  opacity="1">Jun 28</text>
</svg>