<svg width="960" height="336" viewBox="0 0 960 336" fill="none" xmlns="http://www.w3.org/2000/svg">
<rect x="0.5" y="0.5" width="959" height="335" rx="12" ry="12" fill="#0D1117" stroke="#30363D" stroke-width="1" opacity="1" />
<text x="24" y="34" font-family="'Segoe UI', ui-sans-serif, system-ui, -apple-system, 'Helvetica Neue', Arial, sans-serif" font-size="15" font-weight="600" fill="#FFFFFF" text-anchor="start"  opacity="1">Overview</text>
<text x="24" y="52" font-family="'Segoe UI', ui-sans-serif, system-ui, -apple-system, 'Helvetica Neue', Arial, sans-serif" font-size="11.5" font-weight="500" fill="#8B949E" text-anchor="start"  opacity="1">Key profile metrics, refreshed nightly</text>
<rect x="24.0" y="68" width="216.0" height="116" rx="12" ry="12" fill="#161B22" stroke="#30363D" stroke-width="1" opacity="1" />
<rect x="40.0" y="84" width="36" height="36" rx="9" fill="#00BFFF" opacity="0.12" />
<g transform="translate(48.0, 92)"><circle cx="10" cy="10" r="3.2" fill="none" stroke="#00BFFF" stroke-width="1.6"/><line x1="10" y1="0.5" x2="10" y2="6.8" stroke="#00BFFF" stroke-width="1.6"/><line x1="10" y1="13.2" x2="10" y2="19.5" stroke="#00BFFF" stroke-width="1.6"/></g>
<text x="224.0" y="106" font-family="'Segoe UI', ui-sans-serif, system-ui, -apple-system, 'Helvetica Neue', Arial, sans-serif" font-size="24" font-weight="700" fill="#FFFFFF" text-anchor="end"  opacity="1">96</text>
<text x="40.0" y="142" font-family="'Segoe UI', ui-sans-serif, system-ui, -apple-system, 'Helvetica Neue', Arial, sans-serif" font-size="12.5" font-weight="600" fill="#FFFFFF" text-anchor="start"  opacity="1">Total Commits</text>
<text x="40.0" y="160" font-family="'Segoe UI', ui-sans-serif, system-ui, -apple-system, 'Helvetica Neue', Arial, sans-serif" font-size="10.5" font-weight="400" fill="#8B949E" text-anchor="start"  opacity="1">Last 12 months</text>
<rect x="256.0" y="68" width="216.0" height="116" rx="12" ry="12" fill="#161B22" stroke="#30363D" stroke-width="1" opacity="1" />
<rect x="272.0" y="84" width="36" height="36" rx="9" fill="#00BFFF" opacity="0.12" />
<g transform="translate(280.0, 92)"><rect x="1" y="2" width="18" height="16" rx="2.5" fill="none" stroke="#00BFFF" stroke-width="1.6"/><line x1="6" y1="2" x2="6" y2="18" stroke="#00BFFF" stroke-width="1.6"/></g>
<text x="456.0" y="106" font-family="'Segoe UI', ui-sans-serif, system-ui, -apple-system, 'Helvetica Neue', Arial, sans-serif" font-size="24" font-weight="700" fill="#FFFFFF" text-anchor="end"  opacity="1">11</text>
<text x="272.0" y="142" font-family="'Segoe UI', ui-sans-serif, system-ui, -apple-system, 'Helvetica Neue', Arial, sans-serif" font-size="12.5" font-weight="600" fill="#FFFFFF" text-anchor="start"  opacity="1">Repositories</text>
<text x="272.0" y="160" font-family="'Segoe UI', ui-sans-serif, system-ui, -apple-system, 'Helvetica Neue', Arial, sans-serif" font-size="10.5" font-weight="400" fill="#8B949E" text-anchor="start"  opacity="1">Public, non-fork</text>
<rect x="488.0" y="68" width="216.0" height="116" rx="12" ry="12" fill="#161B22" stroke="#30363D" stroke-width="1" opacity="1" />
<rect x="504.0" y="84" width="36" height="36" rx="9" fill="#00BFFF" opacity="0.12" />
<g transform="translate(512.0, 92)"><path d="M10 1.5 L12.3 7.1 L18.3 7.6 L13.7 11.5 L15.1 17.4 L10 14.1 L4.9 17.4 L6.3 11.5 L1.7 7.6 L7.7 7.1 Z" fill="#00BFFF" opacity="0.9"/></g>
<text x="688.0" y="106" font-family="'Segoe UI', ui-sans-serif, system-ui, -apple-system, 'Helvetica Neue', Arial, sans-serif" font-size="24" font-weight="700" fill="#FFFFFF" text-anchor="end"  opacity="1">10</text>
<text x="504.0" y="142" font-family="'Segoe UI', ui-sans-serif, system-ui, -apple-system, 'Helvetica Neue', Arial, sans-serif" font-size="12.5" font-weight="600" fill="#FFFFFF" text-anchor="start"  opacity="1">Stars Earned</text>
<text x="504.0" y="160" font-family="'Segoe UI', ui-sans-serif, system-ui, -apple-system, 'Helvetica Neue', Arial, sans-serif" font-size="10.5" font-weight="400" fill="#8B949E" text-anchor="start"  opacity="1">Across all repos</text>
<rect x="720.0" y="68" width="216.0" height="116" rx="12" ry="12" fill="#161B22" stroke="#30363D" stroke-width="1" opacity="1" />
<rect x="736.0" y="84" width="36" height="36" rx="9" fill="#00BFFF" opacity="0.12" />
<g transform="translate(744.0, 92)"><circle cx="5" cy="4" r="2.1" fill="none" stroke="#00BFFF" stroke-width="1.6"/><circle cx="5" cy="16" r="2.1" fill="none" stroke="#00BFFF" stroke-width="1.6"/><circle cx="15" cy="10" r="2.1" fill="none" stroke="#00BFFF" stroke-width="1.6"/><path d="M5 6.1 V13.9" stroke="#00BFFF" stroke-width="1.6" fill="none"/><path d="M5 6.1 Q5 10 15 10 V7.9" stroke="#00BFFF" stroke-width="1.6" fill="none"/></g>
<text x="920.0" y="106" font-family="'Segoe UI', ui-sans-serif, system-ui, -apple-system, 'Helvetica Neue', Arial, sans-serif" font-size="24" font-weight="700" fill="#FFFFFF" text-anchor="end"  opacity="1">4</text>
<text x="736.0" y="142" font-family="'Segoe UI', ui-sans-serif, system-ui, -apple-system, 'Helvetica Neue', Arial, sans-serif" font-size="12.5" font-weight="600" fill="#FFFFFF" text-anchor="start"  opacity="1">Pull Requests</text>
<text x="736.0" y="160" font-family="'Segoe UI', ui-sans-serif, system-ui, -apple-system, 'Helvetica Neue', Arial, sans-serif" font-size="10.5" font-weight="400" fill="#8B949E" text-anchor="start"  opacity="1">All-time, all repos</text>
<rect x="24.0" y="200" width="216.0" height="116" rx="12" ry="12" fill="#161B22" stroke="#30363D" stroke-width="1" opacity="1" />
<rect x="40.0" y="216" width="36" height="36" rx="9" fill="#00BFFF" opacity="0.12" />
<g transform="translate(48.0, 224)"><circle cx="7" cy="6.5" r="3" fill="none" stroke="#00BFFF" stroke-width="1.6"/><path d="M1.5 18 Q1.5 12.5 7 12.5 Q12.5 12.5 12.5 18" fill="none" stroke="#00BFFF" stroke-width="1.6"/><circle cx="15.5" cy="7.5" r="2.3" fill="none" stroke="#00BFFF" stroke-width="1.4" opacity="0.65"/></g>
<text x="224.0" y="238" font-family="'Segoe UI', ui-sans-serif, system-ui, -apple-system, 'Helvetica Neue', Arial, sans-serif" font-size="24" font-weight="700" fill="#FFFFFF" text-anchor="end"  opacity="1">3</text>
<text x="40.0" y="274" font-family="'Segoe UI', ui-sans-serif, system-ui, -apple-system, 'Helvetica Neue', Arial, sans-serif" font-size="12.5" font-weight="600" fill="#FFFFFF" text-anchor="start"  opacity="1">Followers</text>
<text x="40.0" y="292" font-family="'Segoe UI', ui-sans-serif, system-ui, -apple-system, 'Helvetica Neue', Arial, sans-serif" font-size="10.5" font-weight="400" fill="#8B949E" text-anchor="start"  opacity="1">GitHub community</text>
<rect x="256.0" y="200" width="216.0" height="116" rx="12" ry="12" fill="#161B22" stroke="#30363D" stroke-width="1" opacity="1" />
<rect x="272.0" y="216" width="36" height="36" rx="9" fill="#00BFFF" opacity="0.12" />
<g transform="translate(280.0, 224)"><circle cx="7" cy="6.5" r="3" fill="none" stroke="#00BFFF" stroke-width="1.6"/><path d="M1.5 18 Q1.5 12.5 7 12.5 Q12.5 12.5 12.5 18" fill="none" stroke="#00BFFF" stroke-width="1.6"/><path d="M15 5.5 V10.5 M12.7 8 H17.3" stroke="#00BFFF" stroke-width="1.5"/></g>
<text x="456.0" y="238" font-family="'Segoe UI', ui-sans-serif, system-ui, -apple-system, 'Helvetica Neue', Arial, sans-serif" font-size="24" font-weight="700" fill="#FFFFFF" text-anchor="end"  opacity="1">1</text>
<text x="272.0" y="274" font-family="'Segoe UI', ui-sans-serif, system-ui, -apple-system, 'Helvetica Neue', Arial, sans-serif" font-size="12.5" font-weight="600" fill="#FFFFFF" text-anchor="start"  opacity="1">Following</text>
<text x="272.0" y="292" font-family="'Segoe UI', ui-sans-serif, system-ui, -apple-system, 'Helvetica Neue', Arial, sans-serif" font-size="10.5" font-weight="400" fill="#8B949E" text-anchor="start"  opacity="1">Developers followed</text>
<rect x="488.0" y="200" width="216.0" height="116" rx="12" ry="12" fill="#161B22" stroke="#30363D" stroke-width="1" opacity="1" />
<rect x="504.0" y="216" width="36" height="36" rx="9" fill="#00BFFF" opacity="0.12" />
<g transform="translate(512.0, 224)"><rect x="1" y="1" width="7" height="7" rx="1.6" fill="#00BFFF" opacity="0.9"/><rect x="11" y="1" width="7" height="7" rx="1.6" fill="#00BFFF" opacity="0.45"/><rect x="1" y="11" width="7" height="7" rx="1.6" fill="#00BFFF" opacity="0.45"/><rect x="11" y="11" width="7" height="7" rx="1.6" fill="#00BFFF" opacity="0.9"/></g>
<text x="688.0" y="238" font-family="'Segoe UI', ui-sans-serif, system-ui, -apple-system, 'Helvetica Neue', Arial, sans-serif" font-size="24" font-weight="700" fill="#FFFFFF" text-anchor="end"  opacity="1">7</text>
<text x="504.0" y="274" font-family="'Segoe UI', ui-sans-serif, system-ui, -apple-system, 'Helvetica Neue', Arial, sans-serif" font-size="12.5" font-weight="600" fill="#FFFFFF" text-anchor="start"  opacity="1">Contributed Repos</text>
<text x="504.0" y="292" font-family="'Segoe UI', ui-sans-serif, system-ui, -apple-system, 'Helvetica Neue', Arial, sans-serif" font-size="10.5" font-weight="400" fill="#8B949E" text-anchor="start"  opacity="1">Commits last 12 months</text>
</svg>