<svg width="460" height="300" viewBox="0 0 460 300" fill="none" xmlns="http://www.w3.org/2000/svg">
  <defs>
    <linearGradient id="cardBorderGlow" x1="0" y1="0" x2="460" y2="300">
      <stop offset="0%" stop-color="#00BFFF" stop-opacity="0.35" />
      <stop offset="100%" stop-color="#30363D" stop-opacity="0" />
    </linearGradient>
  </defs>

  <!-- card background -->
  <rect x="0.5" y="0.5" width="459" height="299" rx="12" ry="12"
        fill="#161B22" stroke="#30363D" stroke-width="1" />
  <rect x="0.5" y="0.5" width="459" height="299" rx="12" ry="12"
        fill="none" stroke="url(#cardBorderGlow)" stroke-width="1" />

  <text x="24" y="34" font-family="'Segoe UI', ui-sans-serif, system-ui, -apple-system, 'Helvetica Neue', Arial, sans-serif" font-size="15" font-weight="600"
        fill="#FFFFFF" text-anchor="start">Language Distribution</text>
  <text x="24" y="52" font-family="'Segoe UI', ui-sans-serif, system-ui, -apple-system, 'Helvetica Neue', Arial, sans-serif" font-size="11.5" font-weight="400"
        fill="#8B949E" text-anchor="start">By repository, primary language</text>

  <path d="M 128.00 96.00 A 82 82 0 1 1 79.80 244.34 L 97.44 220.07 A 52 52 0 1 0 128.00 126.00 Z" fill="#00BFFF" opacity="0.95" />
<path d="M 79.80 244.34 A 82 82 0 0 1 50.01 152.66 L 78.55 161.93 A 52 52 0 0 0 97.44 220.07 Z" fill="#38BDF8" opacity="0.95" />
<path d="M 50.01 152.66 A 82 82 0 0 1 79.80 111.66 L 97.44 135.93 A 52 52 0 0 0 78.55 161.93 Z" fill="#0EA5E9" opacity="0.95" />
<path d="M 79.80 111.66 A 82 82 0 0 1 128.00 96.00 L 128.00 126.00 A 52 52 0 0 0 97.44 135.93 Z" fill="#0284C7" opacity="0.95" />
<text x="128" y="174" font-family="'Segoe UI', ui-sans-serif, system-ui, -apple-system, 'Helvetica Neue', Arial, sans-serif" font-size="22" font-weight="700" fill="#FFFFFF" text-anchor="middle"  opacity="1">10</text>
<text x="128" y="194" font-family="'Segoe UI', ui-sans-serif, system-ui, -apple-system, 'Helvetica Neue', Arial, sans-serif" font-size="10.5" font-weight="500" fill="#8B949E" text-anchor="middle"  opacity="1">repos analyzed</text>
<circle cx="250" cy="92" r="5" fill="#00BFFF" />
<text x="264" y="96" font-family="'Segoe UI', ui-sans-serif, system-ui, -apple-system, 'Helvetica Neue', Arial, sans-serif" font-size="12" font-weight="500" fill="#FFFFFF" text-anchor="start"  opacity="1">Python</text>
<text x="436" y="96" font-family="'Segoe UI', ui-sans-serif, system-ui, -apple-system, 'Helvetica Neue', Arial, sans-serif" font-size="12" font-weight="500" fill="#8B949E" text-anchor="end"  opacity="1">60.0%</text>
<circle cx="250" cy="118" r="5" fill="#38BDF8" />
<text x="264" y="122" font-family="'Segoe UI', ui-sans-serif, system-ui, -apple-system, 'Helvetica Neue', Arial, sans-serif" font-size="12" font-weight="500" fill="#FFFFFF" text-anchor="start"  opacity="1">JavaScript</text>
<text x="436" y="122" font-family="'Segoe UI', ui-sans-serif, system-ui, -apple-system, 'Helvetica Neue', Arial, sans-serif" font-size="12" font-weight="500" fill="#8B949E" text-anchor="end"  opacity="1">20.0%</text>
<circle cx="250" cy="144" r="5" fill="#0EA5E9" />
<text x="264" y="148" font-family="'Segoe UI', ui-sans-serif, system-ui, -apple-system, 'Helvetica Neue', Arial, sans-serif" font-size="12" font-weight="500" fill="#FFFFFF" text-anchor="start"  opacity="1">Jupyter Notebook</text>
<text x="436" y="148" font-family="'Segoe UI', ui-sans-serif, system-ui, -apple-system, 'Helvetica Neue', Arial, sans-serif" font-size="12" font-weight="500" fill="#8B949E" text-anchor="end"  opacity="1">10.0%</text>
<circle cx="250" cy="170" r="5" fill="#0284C7" />
<text x="264" y="174" font-family="'Segoe UI', ui-sans-serif, system-ui, -apple-system, 'Helvetica Neue', Arial, sans-serif" font-size="12" font-weight="500" fill="#FFFFFF" text-anchor="start"  opacity="1">TypeScript</text>
<text x="436" y="174" font-family="'Segoe UI', ui-sans-serif, system-ui, -apple-system, 'Helvetica Neue', Arial, sans-serif" font-size="12" font-weight="500" fill="#8B949E" text-anchor="end"  opacity="1">10.0%</text>
</svg>