<svg width="460" height="300" viewBox="0 0 460 300" fill="none" xmlns="http://www.w3.org/2000/svg">
  <defs>
    <linearGradient id="cardBorderGlow" x1="0" y1="0" x2="460" y2="300">
      <stop offset="0%" stop-color="#00BFFF" stop-opacity="0.35" />
      <stop offset="100%" stop-color="#30363D" stop-opacity="0" />
    </linearGradient>
  </defs>

  <!-- card background -->
  <rect x="0.5" y="0.5" width="459" height="299" rx="12" ry="12"
        fill="#161B22" stroke="#30363D" stroke-width="1" />
  <rect x="0.5" y="0.5" width="459" height="299" rx="12" ry="12"
        fill="none" stroke="url(#cardBorderGlow)" stroke-width="1" />

  <text x="24" y="34" font-family="'Segoe UI', ui-sans-serif, system-ui, -apple-system, 'Helvetica Neue', Arial, sans-serif" font-size="15" font-weight="600"
        fill="#FFFFFF" text-anchor="start">Weekly Activity</text>
  <text x="24" y="52" font-family="'Segoe UI', ui-sans-serif, system-ui, -apple-system, 'Helvetica Neue', Arial, sans-serif" font-size="11.5" font-weight="400"
        fill="#8B949E" text-anchor="start">Commits per week · last 12 weeks</text>

  <defs><linearGradient id="lineStroke" x1="44" y1="0" x2="436" y2="0">
      <stop offset="0%" stop-color="#38BDF8" stop-opacity="1" />
      <stop offset="100%" stop-color="#00BFFF" stop-opacity="1" />
    </linearGradient></defs>
<line x1="44" y1="70.00" x2="436" y2="70.00" stroke="#21262D" stroke-width="1" />
<line x1="44" y1="118.50" x2="436" y2="118.50" stroke="#21262D" stroke-width="1" />
<line x1="44" y1="167.00" x2="436" y2="167.00" stroke="#21262D" stroke-width="1" />
<line x1="44" y1="215.50" x2="436" y2="215.50" stroke="#21262D" stroke-width="1" />
<line x1="44" y1="264.00" x2="436" y2="264.00" stroke="#21262D" stroke-width="1" />
<text x="34" y="74.0" font-family="'Segoe UI', ui-sans-serif, system-ui, -apple-system, 'Helvetica Neue', Arial, sans-serif" font-size="10" font-weight="500" fill="#8B949E" text-anchor="end"  opacity="1">13</text>
<text x="34" y="122.5" font-family="'Segoe UI', ui-sans-serif, system-ui, -apple-system, 'Helvetica Neue', Arial, sans-serif" font-size="10" font-weight="500" fill="#8B949E" text-anchor="end"  opacity="1">9</text>
<text x="34" y="171.0" font-family="'Segoe UI', ui-sans-serif, system-ui, -apple-system, 'Helvetica Neue', Arial, sans-serif" font-size="10" font-weight="500" fill="#8B949E" text-anchor="end"  opacity="1">6</text>
<text x="34" y="219.5" font-family="'Segoe UI', ui-sans-serif, system-ui, -apple-system, 'Helvetica Neue', Arial, sans-serif" font-size="10" font-weight="500" fill="#8B949E" text-anchor="end"  opacity="1">3</text>
<text x="34" y="268.0" font-family="'Segoe UI', ui-sans-serif, system-ui, -apple-system, 'Helvetica Neue', Arial, sans-serif" font-size="10" font-weight="500" fill="#8B949E" text-anchor="end"  opacity="1">0</text>
<path d="M 44.00 264.00 C 49.94 264.00 67.76 264.00 79.64 264.00 C 91.52 264.00 103.39 264.00 115.27 264.00 C 127.15 264.00 139.03 292.12 150.91 264.00 C 162.79 235.88 174.67 108.08 186.55 95.30 C 198.42 82.52 210.30 182.21 222.18 187.32 C 234.06 192.43 245.94 138.76 257.82 125.98 C 269.70 113.20 281.58 95.30 293.45 110.64 C 305.33 125.98 317.21 210.32 329.09 217.99 C 340.97 225.66 352.85 177.10 364.73 156.65 C 376.61 136.20 388.48 90.19 400.36 95.30 C 412.24 100.42 430.06 171.98 436.00 187.32" fill="none" stroke="url(#lineStroke)" stroke-width="2.5" stroke-linecap="round" />
<circle cx="44.00" cy="264.00" r="3.2" fill="#0D1117" stroke="#00BFFF" stroke-width="2" />
<circle cx="79.64" cy="264.00" r="3.2" fill="#0D1117" stroke="#00BFFF" stroke-width="2" />
<circle cx="115.27" cy="264.00" r="3.2" fill="#0D1117" stroke="#00BFFF" stroke-width="2" />
<circle cx="150.91" cy="264.00" r="3.2" fill="#0D1117" stroke="#00BFFF" stroke-width="2" />
<circle cx="186.55" cy="95.30" r="3.2" fill="#0D1117" stroke="#00BFFF" stroke-width="2" />
<circle cx="222.18" cy="187.32" r="3.2" fill="#0D1117" stroke="#00BFFF" stroke-width="2" />
<circle cx="257.82" cy="125.98" r="3.2" fill="#0D1117" stroke="#00BFFF" stroke-width="2" />
<circle cx="293.45" cy="110.64" r="3.2" fill="#0D1117" stroke="#00BFFF" stroke-width="2" />
<circle cx="329.09" cy="217.99" r="3.2" fill="#0D1117" stroke="#00BFFF" stroke-width="2" />
<circle cx="364.73" cy="156.65" r="3.2" fill="#0D1117" stroke="#00BFFF" stroke-width="2" />
<circle cx="400.36" cy="95.30" r="3.2" fill="#0D1117" stroke="#00BFFF" stroke-width="2" />
<circle cx="436.00" cy="187.32" r="3.2" fill="#0D1117" stroke="#00BFFF" stroke-width="2" />
<text x="44.0" y="286" font-family="'Segoe UI', ui-sans-serif, system-ui, -apple-system, 'Helvetica Neue', Arial, sans-serif" font-size="9.5" font-weight="500" fill="#8B949E" text-anchor="middle"  opacity="1">Apr 26</text>
<text x="115.27272727272727" y="286" font-family="'Segoe UI', ui-sans-serif, system-ui, -apple-system, 'Helvetica Neue', Arial, sans-serif" font-size="9.5" font-weight="500" fill="#8B949E" text-anchor="middle"  opacity="1">May 10</text>
<text x="186.54545454545453" y="286" font-family="'Segoe UI', ui-sans-serif, system-ui, -apple-system, 'Helvetica Neue', Arial, sans-serif" font-size="9.5" font-weight="500" fill="#8B949E" text-anchor="middle"  opacity="1">May 24</text>
<text x="257.8181818181818" y="286" font-family="'Segoe UI', ui-sans-serif, system-ui, -apple-system, 'Helvetica Neue', Arial, sans-serif" font-size="9.5" font-weight="500" fill="#8B949E" text-anchor="middle"  opacity="1">Jun 7</text>
<text x="329.09090909090907" y="286" font-family="'Segoe UI', ui-sans-serif, system-ui, -apple-system, 'Helvetica Neue', Arial, sans-serif" font-size="9.5" font-weight="500" fill="#8B949E" text-anchor="middle"  opacity="1">Jun 21</text>
<text x="400.3636363636364" y="286" font-family="'Segoe UI', ui-sans-serif, system-ui, -apple-system, 'Helvetica Neue', Arial, sans-serif" font-size="9.5" font-weight="500" fill="#8B949E" text-anchor="middle"  opacity="1">Jul 5</text>
</svg>