<svg width="460" height="300" viewBox="0 0 460 300" fill="none" xmlns="http://www.w3.org/2000/svg">
  <defs>
    <linearGradient id="cardBorderGlow" x1="0" y1="0" x2="460" y2="300">
      <stop offset="0%" stop-color="#00BFFF" stop-opacity="0.35" />
      <stop offset="100%" stop-color="#30363D" stop-opacity="0" />
    </linearGradient>
  </defs>

  <!-- card background -->
  <rect x="0.5" y="0.5" width="459" height="299" rx="12" ry="12"
        fill="#161B22" stroke="#30363D" stroke-width="1" />
  <rect x="0.5" y="0.5" width="459" height="299" rx="12" ry="12"
        fill="none" stroke="url(#cardBorderGlow)" stroke-width="1" />

  <text x="24" y="34" font-family="'Segoe UI', ui-sans-serif, system-ui, -apple-system, 'Helvetica Neue', Arial, sans-serif" font-size="15" font-weight="600"
        fill="#FFFFFF" text-anchor="start">Weekly Activity</text>
  <text x="24" y="52" font-family="'Segoe UI', ui-sans-serif, system-ui, -apple-system, 'Helvetica Neue', Arial, sans-serif" font-size="11.5" font-weight="400"
        fill="#8B949E" text-anchor="start">Commits per week · last 12 weeks</text>

  <defs><linearGradient id="lineStroke" x1="44" y1="0" x2="436" y2="0">
      <stop offset="0%" stop-color="#38BDF8" stop-opacity="1" />
      <stop offset="100%" stop-color="#00BFFF" stop-opacity="1" />
    </linearGradient></defs>
<line x1="44" y1="70.00" x2="436" y2="70.00" stroke="#21262D" stroke-width="1" />
<line x1="44" y1="118.50" x2="436" y2="118.50" stroke="#21262D" stroke-width="1" />
<line x1="44" y1="167.00" x2="436" y2="167.00" stroke="#21262D" stroke-width="1" />
<line x1="44" y1="215.50" x2="436" y2="215.50" stroke="#21262D" stroke-width="1" />
<line x1="44" y1="264.00" x2="436" y2="264.00" stroke="#21262D" stroke-width="1" />
<text x="34" y="74.0" font-family="'Segoe UI', ui-sans-serif, system-ui, -apple-system, 'Helvetica Neue', Arial, sans-serif" font-size="10" font-weight="500" fill="#8B949E" text-anchor="end"  opacity="1">14</text>
<text x="34" y="122.5" font-family="'Segoe UI', ui-sans-serif, system-ui, -apple-system, 'Helvetica Neue', Arial, sans-serif" font-size="10" font-weight="500" fill="#8B949E" text-anchor="end"  opacity="1">10</text>
<text x="34" y="171.0" font-family="'Segoe UI', ui-sans-serif, system-ui, -apple-system, 'Helvetica Neue', Arial, sans-serif" font-size="10" font-weight="500" fill="#8B949E" text-anchor="end"  opacity="1">7</text>
<text x="34" y="219.5" font-family="'Segoe UI', ui-sans-serif, system-ui, -apple-system, 'Helvetica Neue', Arial, sans-serif" font-size="10" font-weight="500" fill="#8B949E" text-anchor="end"  opacity="1">3</text>
<text x="34" y="268.0" font-family="'Segoe UI', ui-sans-serif, system-ui, -apple-system, 'Helvetica Neue', Arial, sans-serif" font-size="10" font-weight="500" fill="#8B949E" text-anchor="end"  opacity="1">0</text>
<path d="M 44.00 264.00 C 49.94 264.00 67.76 264.00 79.64 264.00 C 91.52 264.00 103.39 289.77 115.27 264.00 C 127.15 238.23 139.03 121.08 150.91 109.36 C 162.79 97.65 174.67 189.02 186.55 193.71 C 198.42 198.40 210.30 149.19 222.18 137.48 C 234.06 125.76 245.94 109.36 257.82 123.42 C 269.70 137.48 281.58 214.80 293.45 221.83 C 305.33 228.86 317.21 186.68 329.09 165.59 C 340.97 144.51 352.85 95.30 364.73 95.30 C 376.61 95.30 388.48 142.16 400.36 165.59 C 412.24 189.02 430.06 224.17 436.00 235.88" fill="none" stroke="url(#lineStroke)" stroke-width="2.5" stroke-linecap="round" />
<circle cx="44.00" cy="264.00" r="3.2" fill="#0D1117" stroke="#00BFFF" stroke-width="2" />
<circle cx="79.64" cy="264.00" r="3.2" fill="#0D1117" stroke="#00BFFF" stroke-width="2" />
<circle cx="115.27" cy="264.00" r="3.2" fill="#0D1117" stroke="#00BFFF" stroke-width="2" />
<circle cx="150.91" cy="109.36" r="3.2" fill="#0D1117" stroke="#00BFFF" stroke-width="2" />
<circle cx="186.55" cy="193.71" r="3.2" fill="#0D1117" stroke="#00BFFF" stroke-width="2" />
<circle cx="222.18" cy="137.48" r="3.2" fill="#0D1117" stroke="#00BFFF" stroke-width="2" />
<circle cx="257.82" cy="123.42" r="3.2" fill="#0D1117" stroke="#00BFFF" stroke-width="2" />
<circle cx="293.45" cy="221.83" r="3.2" fill="#0D1117" stroke="#00BFFF" stroke-width="2" />
<circle cx="329.09" cy="165.59" r="3.2" fill="#0D1117" stroke="#00BFFF" stroke-width="2" />
<circle cx="364.73" cy="95.30" r="3.2" fill="#0D1117" stroke="#00BFFF" stroke-width="2" />
<circle cx="400.36" cy="165.59" r="3.2" fill="#0D1117" stroke="#00BFFF" stroke-width="2" />
<circle cx="436.00" cy="235.88" r="3.2" fill="#0D1117" stroke="#00BFFF" stroke-width="2" />
<text x="44.0" y="286" font-family="'Segoe UI', ui-sans-serif, system-ui, -apple-system, 'Helvetica Neue', Arial, sans-serif" font-size="9.5" font-weight="500" fill="#8B949E" text-anchor="middle"  opacity="1">May 3</text>
<text x="115.27272727272727" y="286" font-family="'Segoe UI', ui-sans-serif, system-ui, -apple-system, 'Helvetica Neue', Arial, sans-serif" font-size="9.5" font-weight="500" fill="#8B949E" text-anchor="middle"  opacity="1">May 17</text>
<text x="186.54545454545453" y="286" font-family="'Segoe UI', ui-sans-serif, system-ui, -apple-system, 'Helvetica Neue', Arial, sans-serif" font-size="9.5" font-weight="500" fill="#8B949E" text-anchor="middle"  opacity="1">May 31</text>
<text x="257.8181818181818" y="286" font-family="'Segoe UI', ui-sans-serif, system-ui, -apple-system, 'Helvetica Neue', Arial, sans-serif" font-size="9.5" font-weight="500" fill="#8B949E" text-anchor="middle"  opacity="1">Jun 14</text>
<text x="329.09090909090907" y="286" font-family="'Segoe UI', ui-sans-serif, system-ui, -apple-system, 'Helvetica Neue', Arial, sans-serif" font-size="9.5" font-weight="500" fill="#8B949E" text-anchor="middle"  opacity="1">Jun 28</text>
<text x="400.3636363636364" y="286" font-family="'Segoe UI', ui-sans-serif, system-ui, -apple-system, 'Helvetica Neue', Arial, sans-serif" font-size="9.5" font-weight="500" fill="#8B949E" text-anchor="middle"  opacity="1">Jul 12</text>
</svg>